<svg width="120" height="113" viewBox="0 0 120 113" fill="none" xmlns="http://www.w3.org/2000/svg">
<path d="M60 0C93.15 0 120 25.7312 120 57.5C119.997 69.5477 116.051 81.2911 108.719 91.0773C101.386 100.863 91.0361 108.2 79.125 112.053C76.125 112.628 75 110.831 75 109.322C75 107.381 75.075 101.2 75.075 93.5094C75.075 88.1188 73.2 84.6687 71.025 82.8719C84.375 81.4344 98.4 76.5469 98.4 54.4813C98.4 48.1562 96.075 43.0531 92.25 39.0281C92.85 37.5906 94.95 31.6969 91.65 23.7906C91.65 23.7906 86.625 22.2094 75.15 29.6844C70.35 28.3906 65.25 27.7437 60.15 27.7437C55.05 27.7437 49.95 28.3906 45.15 29.6844C33.675 22.2813 28.65 23.7906 28.65 23.7906C25.35 31.6969 27.45 37.5906 28.05 39.0281C24.225 43.0531 21.9 48.2281 21.9 54.4813C21.9 76.475 35.85 81.4344 49.2 82.8719C47.475 84.3094 45.9 86.825 45.375 90.5625C41.925 92.0719 33.3 94.5156 27.9 85.8187C26.775 84.0938 23.4 79.8531 18.675 79.925C13.65 79.9969 16.65 82.6562 18.75 83.7344C21.3 85.1 24.225 90.2031 24.9 91.8562C26.1 95.0906 30 101.272 45.075 98.6125C45.075 103.428 45.15 107.956 45.15 109.322C45.15 110.831 44.025 112.556 41.025 112.053C29.0748 108.241 18.6805 100.92 11.3167 91.1277C3.95285 81.3356 -0.00660359 69.57 8.26734e-06 57.5C8.26734e-06 25.7312 26.85 0 60 0Z" fill="#171717"/>
</svg>
