<svg width="115" height="115" viewBox="0 0 115 115" fill="none" xmlns="http://www.w3.org/2000/svg">
<g clip-path="url(#clip0_26_5)">
<rect width="115" height="115" rx="10" fill="white"/>
<path d="M106.375 0H8.625C6.33751 0 4.14371 0.908703 2.5262 2.5262C0.908703 4.14371 0 6.33751 0 8.625V106.375C0 108.662 0.908703 110.856 2.5262 112.474C4.14371 114.091 6.33751 115 8.625 115H106.375C108.662 115 110.856 114.091 112.474 112.474C114.091 110.856 115 108.662 115 106.375V8.625C115 6.33751 114.091 4.14371 112.474 2.5262C110.856 0.908703 108.662 0 106.375 0ZM34.5 89.125C34.5 93.8885 30.6385 97.75 25.875 97.75C21.1115 97.75 17.25 93.8885 17.25 89.125V54.625C17.25 49.8615 21.1115 46 25.875 46C30.6385 46 34.5 49.8615 34.5 54.625V89.125ZM25.875 35.9375C23.8981 35.881 21.9816 35.2432 20.3651 34.1037C18.7485 32.9642 17.5037 31.3736 16.7859 29.5307C16.0682 27.6878 15.9095 25.6742 16.3297 23.7416C16.7498 21.809 17.7301 20.043 19.1481 18.6643C20.5662 17.2857 22.3591 16.3555 24.3027 15.99C26.2464 15.6244 28.2547 15.8398 30.0767 16.6091C31.8987 17.3784 33.4536 18.6676 34.5471 20.3156C35.6406 21.9636 36.2242 23.8972 36.225 25.875C36.1796 28.5795 35.0654 31.1561 33.126 33.0416C31.1866 34.9271 28.5797 35.9683 25.875 35.9375ZM97.6863 89.0935C97.7214 93.864 93.8639 97.75 89.0933 97.75C84.3473 97.75 80.5 93.9027 80.5 89.1567V70.495C80.5 62.33 77.05 59.3975 72.565 59.3975C71.25 59.485 69.9653 59.8315 68.7846 60.417C67.604 61.0025 66.5506 61.8155 65.685 62.8093C64.8195 63.8031 64.1588 64.9581 63.7409 66.208C63.4084 67.2024 63.2349 68.2414 63.2251 69.2866C63.22 69.8232 63.1931 70.3639 63.25 70.8975V89.125C63.25 93.8885 59.3885 97.75 54.625 97.75C49.8615 97.75 46 93.8885 46 89.125V54.3375C46 49.7328 49.7328 46 54.3375 46H60.9533C61.9042 46 62.675 46.7708 62.675 47.7217C62.675 49.4309 65.2055 50.312 66.5479 49.2539C67.4308 48.558 68.3807 47.9442 69.3863 47.4228C72.1047 46.0132 75.1395 45.3253 78.2 45.425C87.1125 45.425 97.52 50.37 97.52 66.47L97.6863 89.0935Z" fill="#171717"/>
</g>
<defs>
<clipPath id="clip0_26_5">
<rect width="115" height="115" fill="white"/>
</clipPath>
</defs>
</svg>
